/* XPM */
static char *_7e040a4843a454d9872644bb11481eb[] = {
/* columns rows colors chars-per-pixel */
"54 69 225 2 ",
"   c #010204",
".  c #02040A",
"X  c #080B08",
"o  c #09140C",
"O  c #17130B",
"+  c #050D14",
"@  c #05131A",
"#  c #0B151C",
"$  c #0C1B1D",
"%  c #071415",
"&  c #131B1C",
"*  c #1B1C1C",
"=  c #171717",
"-  c #130D0C",
";  c #241B17",
":  c #2B190C",
">  c #15221D",
",  c #282419",
"<  c #37291A",
"1  c #35210D",
"2  c #0C1B23",
"3  c #0B1D2B",
"4  c #061725",
"5  c #121C24",
"6  c #131E2B",
"7  c #191E2A",
"8  c #171B23",
"9  c #0C1D31",
"0  c #101F32",
"q  c #231E24",
"w  c #0C212C",
"e  c #0D2227",
"r  c #142225",
"t  c #1A2325",
"y  c #14232C",
"u  c #1A232B",
"i  c #1C292D",
"p  c #15282F",
"a  c #0C2332",
"s  c #132532",
"d  c #1A2632",
"f  c #162933",
"g  c #1B2B34",
"h  c #1B2C3B",
"j  c #15293B",
"k  c #1B313B",
"l  c #232323",
"z  c #242529",
"x  c #292A29",
"c  c #352B26",
"v  c #38352B",
"b  c #232C34",
"n  c #252C37",
"m  c #24323C",
"M  c #2A3537",
"N  c #383736",
"B  c #2D3031",
"V  c #472A18",
"C  c #54311D",
"Z  c #462D24",
"A  c #483828",
"S  c #573928",
"D  c #4B3C33",
"F  c #473A37",
"G  c #543C34",
"H  c #582E25",
"J  c #663C28",
"K  c #6B3E32",
"L  c #62351E",
"P  c #3D423B",
"I  c #5C432C",
"U  c #49433A",
"Y  c #5D4333",
"T  c #5C4A3C",
"R  c #584637",
"E  c #544A35",
"W  c #64432C",
"Q  c #6B432C",
"!  c #71442D",
"~  c #634433",
"^  c #6B4432",
"/  c #644A35",
"(  c #6A4B34",
")  c #644C3B",
"_  c #6B4C39",
"`  c #65453B",
"'  c #734533",
"]  c #744B35",
"[  c #734B3B",
"{  c #764837",
"}  c #6C533B",
"|  c #76533B",
" . c #182D44",
".. c #1D3343",
"X. c #1C3649",
"o. c #233443",
"O. c #243C4B",
"+. c #293C4B",
"@. c #283844",
"#. c #343C45",
"$. c #263D53",
"%. c #2E374E",
"&. c #473E42",
"*. c #29424B",
"=. c #394549",
"-. c #2D4352",
";. c #284458",
":. c #324453",
">. c #3A4A54",
",. c #3A4D5C",
"<. c #354958",
"1. c #39515A",
"2. c #3B4E60",
"3. c #3E5464",
"4. c #2D4760",
"5. c #424D4C",
"6. c #484B47",
"7. c #584B44",
"8. c #4C544D",
"9. c #45514C",
"0. c #53534B",
"q. c #5A564A",
"w. c #444D55",
"e. c #4B5354",
"r. c #485559",
"t. c #585955",
"y. c #664C44",
"u. c #645343",
"i. c #665749",
"p. c #775945",
"a. c #665C55",
"s. c #775B53",
"d. c #5A6259",
"f. c #79634B",
"g. c #64655C",
"h. c #6C6B5D",
"j. c #676458",
"k. c #776757",
"l. c #6F6B52",
"z. c #465868",
"x. c #515D66",
"c. c #586468",
"v. c #536A79",
"b. c #4D616F",
"n. c #676B65",
"m. c #776C63",
"M. c #6B736A",
"N. c #6A7367",
"B. c #777469",
"V. c #6A7678",
"C. c #747C73",
"Z. c #787D78",
"A. c #626E71",
"S. c #635F60",
"D. c #825D47",
"F. c #84634B",
"G. c #876856",
"H. c #87755C",
"J. c #94725C",
"K. c #887868",
"L. c #977766",
"P. c #857B73",
"I. c #9C7872",
"U. c #936D66",
"Y. c #A57B77",
"T. c #A1796F",
"R. c #80533C",
"E. c #7A8379",
"W. c #97856C",
"Q. c #88877A",
"!. c #968878",
"~. c #958C77",
"^. c #A68779",
"/. c #AA957D",
"(. c #B3927E",
"). c #5C7585",
"_. c #707E82",
"`. c #77858A",
"'. c #888C84",
"]. c #978C86",
"[. c #8B9489",
"{. c #979488",
"}. c #939B93",
"|. c #999794",
" X c #8A9493",
".X c #A88984",
"XX c #A99786",
"oX c #B39A89",
"OX c #A99C94",
"+X c #B79590",
"@X c #9BA399",
"#X c #B6A48A",
"$X c #A8A597",
"%X c #B4A393",
"&X c #BBAB9C",
"*X c #BAA696",
"=X c #B0A692",
"-X c #99A9B0",
";X c #BDACA2",
":X c #B9A8A4",
">X c #B9B2A8",
",X c #B4B1AC",
"<X c #A09FA4",
"1X c #C39C93",
"2X c #C3AB9C",
"3X c #C5A898",
"4X c #CBAD9D",
"5X c #C3ACA3",
"6X c #C8ADA5",
"7X c #C4B5AC",
"8X c #CBB4AC",
"9X c #C8B5A6",
"0X c #CBBAB5",
"qX c #D6BCB5",
"wX c #D0B5AA",
"eX c #BCC2B8",
"rX c #CDC3BC",
"tX c #D4C3BA",
"yX c #D1C2AF",
"uX c #E2C5BF",
"iX c #C8BFC0",
"pX c #B8C9D1",
"aX c #D8C9C4",
"sX c #CECDC5",
"dX c #D9DDDE",
/* pixels */
"a.N.Q.Q.Q.[.[.@X}.}.}.@X$XXXXX/././.W.W.H.H.~.B.W.W.H.W.L.F.F.F.f.F.| } F.J.F.F.! ! ! W J I G u.m.N.a.g.l.h.",
"U j.m.B.~.@X}.[.}.[.E.h.j.i.) / / E } l.l.A A E E E I } } W W L I W W I W Q L L L J Q J ~ ~ ) j.m.h.j.N.N.N.",
", < q.E.{.Q.Q.@X@X@X}.E.q.D E ) / / s.K.l.< < A 7.y./ I K ` _ ~ Q } ( ( ] ! Q ! ! ' { ^ / ` T k.m.q.j.N.l.E.",
"A A 1 A h.~.[.Q.`.[.@X,XOXh.E R G ) i.7.< o : , c R ) T G ` y.` I W W Q | ! J Q J ! ! K ~ Y T m.h.0.j.B.B.E.",
"A ) A 1 c i.E.[.`.Z.Z.}.,X$XQ.m.y.7.&.c ; = ; = ; c F G 7.y.y.s.s.D.s.` [ { K ! J J ! J Y ` 7.m.g.t.N.E.~.E.",
"/ I S A Z , < 0.'.}.'.Z.[.,X:X].m.F c q q q q l q q q c F &.7.q.y.s.s.` ~ ^ ' { ' ' ! K ` y.q.j.d.d.E.E.@XE.",
"I ~ ~ / } E F U P M. X}.}.}.[.'.0.z q # 7 5 2 u 7 8 z z z B B B %.G G ` y.y.K K ' J K K Y i.a.q.q.d.N.E.[.E.",
"L ~ ^ W / A , O x M 9.c.d.N q q t 8 b 5 y p s p d 7 d 7 8 7 7 x n c q c G ` ` [ ' J W ` Y a.a.6.8.d.l.[.E.E.",
"L J ^ | } A A c 0.P M i t t t > 8 u y y y p p p p p y u p i i i q 7 n c c c A y.K K K Y u.u.a.U 9.E.E.[.d.N.",
"L J ^ p.} A E P P M i u i > t l y u y y p p p a s d y y r p u p n 7 n n l , c Z G y.` R 7.7.8.6.9.N.[.E.N.E.",
"H J W ( / A v < , > r u u u t u 7 7 7 y y y 0 6 7 y 7 u u u u y e p 7 d z l , ; Z y.G 7.q.q.U 8.8.N.E.E.d.d.",
"C S W W / E A , > > r y p p u r 6 7 7 7 6 3 6 6 6 7 7 7 u u 6 y w p d d d i l ; c F F q.j.d.U 8.d.N.E.E.d.d.",
"C C C S I E U ; * r p y r u u 5 6 6 7 0 y y y 0 7 6 7 7 y 7 7 7 p p f p y u u q q l D a.g.8.9.8.l.N.E.E.N.E.",
"V V 1 V I ) U , > t u e 3 y y 6 5 0 6 6 0 0 7 w 6 6 7 7 7 7 u y y y d y y y u q z l 6.t.t.U 9.d.N.E.E.d.d.E.",
"V V V C u.m.h.U * > 5 e 6 6 6 6 4 3 3 3 3 3 3 3 3 7 0 7 7 y y y 6 5 y y s 7 d b z B 8.t.5.6.8.c.M.E.N.d.d.E.",
"I / / p.H.~.B.U > & 2 y 6 2 4 6 w 3 3 3 3 w 3 3 0 3 3 6 6 y y y y y y s s 7 u s r M w.e.=.d.d.N.E.N.E.N.E.E.",
"l.k.k.H.H.H.B.E q q 7 6 5 4 2 5 6 6 w w a a a w f g f s p y 6 w f 4 g r y 5 y $ r M 1.r.=.r.d.C.E.A.E.N.E.l.",
"f.f.) I E / E c ; 8 8 # 5 2 2 2 5 r y w a w a w 4 $ 2 5 6 2 6 j w s p e i $ $ m p i =.9.r.d.A.`.E.c.E.N.l.l.",
"H.f.S C C A A , ; 8 4 8 5 6 6 r 5 & e 2 e 4 2 e w p y w y e w a w 4 @ @ 5 5 2 i p r M >.r.d.Z.Z.E.N.E.d.l.q.",
"F.p.S S I I A < q = 8 8 5 6 6 r > & > $ $ $ e $ $ $ $ @ e p w 4 3 O.z.f y % r e w y m >.r.c.Z.A.c.h.h.d.l.q.",
"[ [ L W ( I I < ; 8 # 4 5 5 r 2 > & $ $ $ e $ 2 # 6 # 2 e w e a :.-X-XX.$ 2 e g p p i r.x.A.Z.n.d.g.j.q.i.E ",
"{ [ K ^ ( W S < ; = = 8 5 5 2 2 % $ $ 2 e e 5 2 7 8 5 7 e @ 4 ..`.dXpXz.@ y 2 @ e p g r.A.V.V.M.d.h.q.u.} E ",
"{ { ! ! W J S < ; = # 5 5 2 $ $ e e 7 7 7 7 y 6 7 8 7 d p 3 h <.pXdXdX`.@ 4 4 i 3 e p r.V.V.M.n.N.h.E E } E ",
"' ! ! { Q W G , = = 8 5 2 2 $ $ 2 $ 4 3 5 # # # - = 8 = # 5 y i z.-XpX-XA.=.@ @ w e p 1.Z.V.A.n.h.l.q.E } / ",
"' J { | ] / I < ; - 6 7 # @ & $ 2 @ @ @ # u B z F &.&.q ; = = & j a =.A.V.V.y # e 3 p =.V.V.c.S.i.l.u./ } | ",
"! ! R.R.] / ) v O = # @ 2 r & $ + r 5.V.}.@X,X0X:X:X6X6XOXj.c o + $ 8 i 9. X_.#.# . 2 @.c.V.n.t.7.} E } | | ",
"' ! R.R.| I Y < O l 8 5 u # + z c.@X,X,XsXsXsXyXtX9X3X+XH.T E i.d.N = * q 6.V._.x.2 # $ =.A.d.8.a.T / } F.| ",
"^ Q ( ] } ( R c = = + # 8 7 6.|.eXsXsXsXsXsXyXyX3XoXL.f.i.f.W.{.{.{.n.v - l A. X>.# @ @ M c.t.g.j.T } | F.( ",
"^ W W Q ( } R < ; - # 7 q B &.S.E.N.Q.OX&X>X9X9X3X/.W.H.G.J.K.H.'.!.P.a.N = x n.`.c.n % M x.t.q.u.S I ) | ( ",
"W W W J W I E < = = = = B S._.m.l.i.l.B.~.=X9X&X#XW.H.f./ E u.i.u.i.m.B.h.v X b c. Xx.u M e.t.t.q.U Z A I I ",
"V C C V L C A 1 ; ; q &.m.|.<X].B.l.j.B.W.Q.=XyXyX/.H.k.u.i.m.K.!.!.XXOXOXm., = e.V.#.$ M e.d.M.B.P.k.k.l.f.",
"| | | | f.p.u.U , ; q S.].].S.` E s.s.s.m.~.;XuXyX2X=X!.K.P.].|.OX:X&X7X>X:Xd.* * M t & t z z P j.~./.~.W.H.",
"G.G.G.F.D.H.K.D ; ; q S.P.t.a.a.j.K.I.Q.].=X8XaXaX8X:X%XOXOXOX:X7X7XtX0X0X0X@X6.o > O o > o + * N 6.i.l.f.p.",
"R.| D.F.D.G.i.A - O N `.<X|.+XOX.X.X]..X*X&X9XqXqX8X8X0X0X0X0XaXtX0XaXtX0X7X>XQ., o > o o o + r x v v E u.s.",
"| ( K [ p.i.y.R ; = &.|.:X0X7X:X:X*X:X;X7X;X6XqXqX6X5X8XqXtX0XiXaXtXaXaXqX7X>XOXU   * o   o y #.M B x c U u.",
"( _ | G.U.G.y.R < ; S.<X,XiXiXiX8X8X0X8X5X*X6XqXqX8X6X7X8X0XqXiXaXaXaXqXrX8X:XXXi.O = X X $ m #.=.P B x Z F ",
"( | F.J.I.G.y.G c ; a.<X,XiXaXaXuXqXqX8X6X8XqXuXqXqXqX6X7X5X0X0XaXaXtXwXqX6X5XoXj.; X   # 4 m  .m M M x c F ",
"_ } p.F.D.[ [ y.Z ; t.OX,XiXsXaXaXqX6X5X:X5XqXqXwX1X.X.X.X+X:X:X8XyXyX9X6X%X%XoXH.q.c . + 9 o.0 h k b b N #.",
"( ( D.G.R.K [ y.Z : G ].7XsXsXaXtX6X5X+XI.U.I.Y.I.U.D.G.Y.:X5X*X:X&X9X4X3X/.XXXX!.B.S.# 7  .$. . .h j h M #.",
"( ^ R.F.' K { y.H : c Z.<X0XrXtXwX1XoX.XU.s.s.U.U.U.U.Y.+X3X3X1X&X*X&X3X#XoX#X.Xm.F =.7 %.$.$.$.X.j s g n n ",
"p.( ] R.| ' { ( S : D P.%X0X7X7X5X+X3X4X/.^.(.^.Y.1X1X1X4X4X4X4X&XXX=X2X#X#X#X~.E o * M O.;.4.;.*.X.O.k k i ",
"f.] ] ] ! ! { [ G V s.{.OXOX&X:X3X3X4X4X3X3X4X3X4X1X1X4XwX4X1X1X$X=X&X#X#X#X/.W.v o r M ;.O.;.;.O.*.*.p i m ",
"W W } D.R.] { ( Y T ~.>X%XOX;X&X#X*X2XwX4X3X1X1X1X+X+XY.Y.Y.U.U.~.&X9X#X#X&XXXl.c - r +.;.X.;.X.;.*.*.*.*.#.",
"/ I } D.| ^ ~ W / } Q.XX{.XX%XoXoXoX/./.(.T.L.T.T.U.T.U.T.U.U.T./.=X#X#X#X#X/.l.l & u h X. .O.k *.X.*.1.5.#.",
"u.` ) p.p._ / ~ ) u.7.q.P.XXOX*X*X#X!.L.H.H.U.Y.Y.Y.Y.Y.^.^.XX*X9X#X#X/.#X/.~.q.O & 0 j  . .+.o.k k k *.#.b ",
"T A G ) ` ~ G A < v , < q.P.OX%X2X2X*X.X.XI.I.Y.Y.Y.Y.Y.^..X1X2X&X#X#X/.#X/.W.v - 8 n n %.m o.@.k p k i 5 # ",
"7.Z < V < < < V < v N A F m.XX:X%X*X&X5X:X+XY.I.I.U.I.Y..X1X2X2X#X#X#X#X/.W.l.: = d %.o.%.@.m @.g p > o X X ",
"q.F U T ) 7.T 7.q.j.g.0.x F ].OX$X%X*X*X:X:X+X+X.X+X+X1X1X6X2X&X#X&X#X#X/.l.A O * M w.d m %.@.#.d $ o       ",
"a.7.7.7.q.h.B.h.B.B.h.N ; , t.{.=X=X=X>X>XyX9X&X&X8X8X6X9X4X4X9X4X#X#X/.L.u.O O z N n n n o.h 5 #   .       ",
"j.7.U 0.g.B.E.B.h.a.6.c O O v g.~.@X$X>X>X>XeX7X8X0X0X9X9XwX9X4X3X#X(.~.k.< X = 8 q 7 7 7 8 4 . + X .   X . ",
"t.0.t.n.M.B.g.0.0.6.v * O X o N h.Q.$X,X>X>X9X9X7X5X2X2X2X9X4X*X#X/.W.l.Z O X O 8 # # # 6 4 4 8 + # . .   . ",
"a.d.a.g.d.d.8.6.6.6.c * * o X = N n.'.OX>X>X>X9X*XoXoX%X*X2X#X/./.L.p.I O X * o + + + 4 7 n m #.d # + # .   ",
"t.t.t.6.5.P 6.8.8.6.B = * = X . > 5.C.'.'./.=X#XoXXX/.(./.^.W.W.p.} E A O X O o . $ p @.>.w.<.:.n # # 5 # . ",
"w.e.w.6.8.9.5.5.0.e.x = = & % + % P Z.[.Q.E.W.H.L.G.H.H.G.f.f.p./ / E , O o o X r M 1.x.b.w.o.7 6 5 2 5 %.+ ",
"6.e.w.5.9.w.9.9.e.e.B & 5 $ & $ % b M.@X{.B.l.l.f.f.} } } } } u.s.f.T : X o o > M 1.z.z.<.o.3 2 d @.b n w.6 ",
"w.w.5.5.9.5.5.5.=.&.B i t 5 r $ % % 8.}.$X~.~.H.H.f.p.} f.f.l.k.K.j.U = o > $ @.>.1.1.*...i h :.>.w.>.>.w.u ",
"9.9.9.9.9.9.9.9.9.#.#.M z d u 2 $ % M E.$X@X~.~.W.W.H.k.k.K.I.P.m.q.c X 8 r r *.1.1.O.X.f 1.z.c.w.w.r.r.b b ",
"5.1.9.9.5.5.9.9.e.t.e.#.7 0 y 5 @ o > 8.[.=X=X~.~.~.W.L.!.!.P.m.a.x ; * t $ g =.1.*.k j *.z.v.b.w.x.A.x.& r ",
"9.e.d.9.9.9.8.8.e.t.r.M # 2 0 p $ o o M E.=X@X{.~.XX].P.P.m.a.t.&.q * 8 $ 2 *.*.*.X.j s 1.b.b.z.>.>.z.r.& i ",
"t.t.8.9.8.8.d.8.t.t.e.n # 3 w w $ $ o 8 d.[.=X@X{.{.'.B.S.t.6.&.#.#.b r u p k k k k j  .3.3.1.<.w.>.w.#.u M ",
"8.q.0.0.8.d.q.8.t.e.&.M n d 3 4 6 + 4 # M V.-X@X`.M.n.d.d.t.t.w.e.e.=.=.m w 3 4 0 j h O.3.3.:.<.<.x.x.d m =.",
"t.d.j.d.q.8.8.E F B M M #.h 4 4 d 0 7 6 e w.`.V.c.r.c.A.c.c.c.5.r.>.-.*.y 4 3 4 9 9 j *.z.3.1.2.z.b.,.m <.>.",
"q.t.q.0.U P v v l q x M #.m 0 j %.2.%.0 p @.1.>.=.b.V.V.A.t.5.=.:.*.o.f @ 0 0 4 9 9  .2.z.3.,.1.b.z.@.:.<.m ",
"T E A v < , ; O , c B N #.@.o.,.z.z.X.4 j ....*.*.b.b.r.r.>.m @.m +.s 9 j $.9 9 9 0 ..z.b.3.-.:.+.-.h ,.o.6 ",
"v < V Z A V : , F F F N B g :.z.z.$.j  . .X.;.;.3.z.2.:.+.o.O.+.;.*.X.-.;.-.%.%.O.o...+.@.+.h h o.h h h s w ",
"< 1 V S G A 1 < R G F c i b <.z.2.X. .$.X. .$.2.b.z.:.+.+.<.2.3.3.3.z.3.1.2.3.3.2.%.s 0 0 j j o.:.o.j p s 3 ",
"< V C A I V , < Z G H N B #.>.2.$. . .X.a 9 $.z.z.z.:.-.1.3.b.v.v.).).b.3.3.b.b.2.o.4 4 4 h o.:.z.+.s 3 3 4 ",
"S A C C C 1 : < Z G F F 6.w.w.%. . . .9 9  .X.4.4.2.2.<.<.4.3.v.).).).3.2.z.z.3.-.j @ 9 j +.+.2.,.o.3 4 3 0 ",
"S C H H C V : 1 Z G H &.&.e.2.o. .$.$. .$.4.4.$.$.,.,.$...X.,.).).v.3.<.2.z.b.2.%.s 9 j o.<.<.w.*.s 4 4 3 s "
};
